<mxfile host="app.diagrams.net" modified="2020-10-15T17:29:03.411Z" agent="5.0 (Windows NT 6.1; Win64; x64) AppleWebKit/537.36 (KHTML, like Gecko) Chrome/85.0.4183.121 Safari/537.36" etag="azw-fbTXSXKK2cp6UJiD" version="13.8.0" type="github">
  <diagram id="u5egj9Q1XMa9EqDsLZzm" name="Page-1">
    <mxGraphModel dx="1950" dy="622" grid="1" gridSize="10" guides="1" tooltips="1" connect="1" arrows="1" fold="1" page="1" pageScale="1" pageWidth="850" pageHeight="1100" math="0" shadow="0">
      <root>
        <mxCell id="0" />
        <mxCell id="1" parent="0" />
        <mxCell id="iNh4lFPZa8ypUP3hIFsf-1" value="drumSet" style="swimlane;fontStyle=1;align=center;verticalAlign=top;childLayout=stackLayout;horizontal=1;startSize=26;horizontalStack=0;resizeParent=1;resizeParentMax=0;resizeLast=0;collapsible=1;marginBottom=0;fillColor=#d5e8d4;strokeColor=#82b366;" parent="1" vertex="1">
          <mxGeometry x="320" y="50" width="160" height="164" as="geometry" />
        </mxCell>
        <mxCell id="iNh4lFPZa8ypUP3hIFsf-2" value="-batterHead: String&#xa;-resonantHead: String&#xa;-numberOfLugs: int&#xa;-drumDiatmeter: int&#xa;-hasSnares: boolean" style="text;strokeColor=none;fillColor=none;align=left;verticalAlign=top;spacingLeft=4;spacingRight=4;overflow=hidden;rotatable=0;points=[[0,0.5],[1,0.5]];portConstraint=eastwest;" parent="iNh4lFPZa8ypUP3hIFsf-1" vertex="1">
          <mxGeometry y="26" width="160" height="104" as="geometry" />
        </mxCell>
        <mxCell id="iNh4lFPZa8ypUP3hIFsf-3" value="" style="line;strokeWidth=1;fillColor=none;align=left;verticalAlign=middle;spacingTop=-1;spacingLeft=3;spacingRight=3;rotatable=0;labelPosition=right;points=[];portConstraint=eastwest;" parent="iNh4lFPZa8ypUP3hIFsf-1" vertex="1">
          <mxGeometry y="130" width="160" height="8" as="geometry" />
        </mxCell>
        <mxCell id="iNh4lFPZa8ypUP3hIFsf-4" value="+ method(type): type" style="text;strokeColor=none;fillColor=none;align=left;verticalAlign=top;spacingLeft=4;spacingRight=4;overflow=hidden;rotatable=0;points=[[0,0.5],[1,0.5]];portConstraint=eastwest;" parent="iNh4lFPZa8ypUP3hIFsf-1" vertex="1">
          <mxGeometry y="138" width="160" height="26" as="geometry" />
        </mxCell>
        <mxCell id="iNh4lFPZa8ypUP3hIFsf-30" value="Extends" style="endArrow=block;endSize=16;endFill=0;html=1;exitX=0.538;exitY=-0.07;exitDx=0;exitDy=0;exitPerimeter=0;" parent="1" source="iNh4lFPZa8ypUP3hIFsf-13" target="iNh4lFPZa8ypUP3hIFsf-1" edge="1">
          <mxGeometry width="160" relative="1" as="geometry">
            <mxPoint x="150" y="250" as="sourcePoint" />
            <mxPoint x="330" y="175.9230769230769" as="targetPoint" />
          </mxGeometry>
        </mxCell>
        <mxCell id="iNh4lFPZa8ypUP3hIFsf-5" value="drumSnare" style="swimlane;fontStyle=1;align=center;verticalAlign=top;childLayout=stackLayout;horizontal=1;startSize=26;horizontalStack=0;resizeParent=1;resizeParentMax=0;resizeLast=0;collapsible=1;marginBottom=0;fillColor=#e1d5e7;strokeColor=#9673a6;" parent="1" vertex="1">
          <mxGeometry x="40" y="310" width="160" height="86" as="geometry" />
        </mxCell>
        <mxCell id="iNh4lFPZa8ypUP3hIFsf-29" value="Extends" style="endArrow=block;endSize=16;endFill=0;html=1;" parent="iNh4lFPZa8ypUP3hIFsf-5" target="iNh4lFPZa8ypUP3hIFsf-1" edge="1">
          <mxGeometry width="160" relative="1" as="geometry">
            <mxPoint x="100" y="10" as="sourcePoint" />
            <mxPoint x="260" y="10" as="targetPoint" />
          </mxGeometry>
        </mxCell>
        <mxCell id="iNh4lFPZa8ypUP3hIFsf-6" value="+ field: type" style="text;strokeColor=none;fillColor=none;align=left;verticalAlign=top;spacingLeft=4;spacingRight=4;overflow=hidden;rotatable=0;points=[[0,0.5],[1,0.5]];portConstraint=eastwest;" parent="iNh4lFPZa8ypUP3hIFsf-5" vertex="1">
          <mxGeometry y="26" width="160" height="26" as="geometry" />
        </mxCell>
        <mxCell id="iNh4lFPZa8ypUP3hIFsf-7" value="" style="line;strokeWidth=1;fillColor=none;align=left;verticalAlign=middle;spacingTop=-1;spacingLeft=3;spacingRight=3;rotatable=0;labelPosition=right;points=[];portConstraint=eastwest;" parent="iNh4lFPZa8ypUP3hIFsf-5" vertex="1">
          <mxGeometry y="52" width="160" height="8" as="geometry" />
        </mxCell>
        <mxCell id="iNh4lFPZa8ypUP3hIFsf-8" value="+ method(type): type" style="text;strokeColor=none;fillColor=none;align=left;verticalAlign=top;spacingLeft=4;spacingRight=4;overflow=hidden;rotatable=0;points=[[0,0.5],[1,0.5]];portConstraint=eastwest;" parent="iNh4lFPZa8ypUP3hIFsf-5" vertex="1">
          <mxGeometry y="60" width="160" height="26" as="geometry" />
        </mxCell>
        <mxCell id="iNh4lFPZa8ypUP3hIFsf-13" value="drumHiTom" style="swimlane;fontStyle=1;align=center;verticalAlign=top;childLayout=stackLayout;horizontal=1;startSize=26;horizontalStack=0;resizeParent=1;resizeParentMax=0;resizeLast=0;collapsible=1;marginBottom=0;fillColor=#e1d5e7;strokeColor=#9673a6;" parent="1" vertex="1">
          <mxGeometry x="240" y="310" width="160" height="86" as="geometry" />
        </mxCell>
        <mxCell id="iNh4lFPZa8ypUP3hIFsf-14" value="+ field: type" style="text;strokeColor=none;fillColor=none;align=left;verticalAlign=top;spacingLeft=4;spacingRight=4;overflow=hidden;rotatable=0;points=[[0,0.5],[1,0.5]];portConstraint=eastwest;" parent="iNh4lFPZa8ypUP3hIFsf-13" vertex="1">
          <mxGeometry y="26" width="160" height="26" as="geometry" />
        </mxCell>
        <mxCell id="iNh4lFPZa8ypUP3hIFsf-15" value="" style="line;strokeWidth=1;fillColor=none;align=left;verticalAlign=middle;spacingTop=-1;spacingLeft=3;spacingRight=3;rotatable=0;labelPosition=right;points=[];portConstraint=eastwest;" parent="iNh4lFPZa8ypUP3hIFsf-13" vertex="1">
          <mxGeometry y="52" width="160" height="8" as="geometry" />
        </mxCell>
        <mxCell id="iNh4lFPZa8ypUP3hIFsf-16" value="+ method(type): type" style="text;strokeColor=none;fillColor=none;align=left;verticalAlign=top;spacingLeft=4;spacingRight=4;overflow=hidden;rotatable=0;points=[[0,0.5],[1,0.5]];portConstraint=eastwest;" parent="iNh4lFPZa8ypUP3hIFsf-13" vertex="1">
          <mxGeometry y="60" width="160" height="26" as="geometry" />
        </mxCell>
        <mxCell id="iNh4lFPZa8ypUP3hIFsf-22" value="drumBass" style="swimlane;fontStyle=1;align=center;verticalAlign=top;childLayout=stackLayout;horizontal=1;startSize=26;horizontalStack=0;resizeParent=1;resizeParentMax=0;resizeLast=0;collapsible=1;marginBottom=0;fillColor=#e1d5e7;strokeColor=#9673a6;" parent="1" vertex="1">
          <mxGeometry x="660" y="310" width="160" height="86" as="geometry" />
        </mxCell>
        <mxCell id="iNh4lFPZa8ypUP3hIFsf-23" value="+ field: type" style="text;strokeColor=none;fillColor=none;align=left;verticalAlign=top;spacingLeft=4;spacingRight=4;overflow=hidden;rotatable=0;points=[[0,0.5],[1,0.5]];portConstraint=eastwest;" parent="iNh4lFPZa8ypUP3hIFsf-22" vertex="1">
          <mxGeometry y="26" width="160" height="26" as="geometry" />
        </mxCell>
        <mxCell id="iNh4lFPZa8ypUP3hIFsf-24" value="" style="line;strokeWidth=1;fillColor=none;align=left;verticalAlign=middle;spacingTop=-1;spacingLeft=3;spacingRight=3;rotatable=0;labelPosition=right;points=[];portConstraint=eastwest;" parent="iNh4lFPZa8ypUP3hIFsf-22" vertex="1">
          <mxGeometry y="52" width="160" height="8" as="geometry" />
        </mxCell>
        <mxCell id="iNh4lFPZa8ypUP3hIFsf-25" value="+ method(type): type" style="text;strokeColor=none;fillColor=none;align=left;verticalAlign=top;spacingLeft=4;spacingRight=4;overflow=hidden;rotatable=0;points=[[0,0.5],[1,0.5]];portConstraint=eastwest;" parent="iNh4lFPZa8ypUP3hIFsf-22" vertex="1">
          <mxGeometry y="60" width="160" height="26" as="geometry" />
        </mxCell>
        <mxCell id="iNh4lFPZa8ypUP3hIFsf-17" value="drumFloorTom" style="swimlane;fontStyle=1;align=center;verticalAlign=top;childLayout=stackLayout;horizontal=1;startSize=26;horizontalStack=0;resizeParent=1;resizeParentMax=0;resizeLast=0;collapsible=1;marginBottom=0;fillColor=#e1d5e7;strokeColor=#9673a6;" parent="1" vertex="1">
          <mxGeometry x="460" y="310" width="160" height="86" as="geometry" />
        </mxCell>
        <mxCell id="iNh4lFPZa8ypUP3hIFsf-18" value="+ field: type" style="text;strokeColor=none;fillColor=none;align=left;verticalAlign=top;spacingLeft=4;spacingRight=4;overflow=hidden;rotatable=0;points=[[0,0.5],[1,0.5]];portConstraint=eastwest;" parent="iNh4lFPZa8ypUP3hIFsf-17" vertex="1">
          <mxGeometry y="26" width="160" height="26" as="geometry" />
        </mxCell>
        <mxCell id="iNh4lFPZa8ypUP3hIFsf-19" value="" style="line;strokeWidth=1;fillColor=none;align=left;verticalAlign=middle;spacingTop=-1;spacingLeft=3;spacingRight=3;rotatable=0;labelPosition=right;points=[];portConstraint=eastwest;" parent="iNh4lFPZa8ypUP3hIFsf-17" vertex="1">
          <mxGeometry y="52" width="160" height="8" as="geometry" />
        </mxCell>
        <mxCell id="iNh4lFPZa8ypUP3hIFsf-20" value="+ method(type): type" style="text;strokeColor=none;fillColor=none;align=left;verticalAlign=top;spacingLeft=4;spacingRight=4;overflow=hidden;rotatable=0;points=[[0,0.5],[1,0.5]];portConstraint=eastwest;" parent="iNh4lFPZa8ypUP3hIFsf-17" vertex="1">
          <mxGeometry y="60" width="160" height="26" as="geometry" />
        </mxCell>
        <mxCell id="iNh4lFPZa8ypUP3hIFsf-31" value="Extends" style="endArrow=block;endSize=16;endFill=0;html=1;exitX=0.5;exitY=0;exitDx=0;exitDy=0;" parent="1" source="iNh4lFPZa8ypUP3hIFsf-17" target="iNh4lFPZa8ypUP3hIFsf-1" edge="1">
          <mxGeometry width="160" relative="1" as="geometry">
            <mxPoint x="336.0799999999999" y="313.98" as="sourcePoint" />
            <mxPoint x="340" y="185.9230769230769" as="targetPoint" />
          </mxGeometry>
        </mxCell>
        <mxCell id="iNh4lFPZa8ypUP3hIFsf-32" value="Extends" style="endArrow=block;endSize=16;endFill=0;html=1;" parent="1" source="iNh4lFPZa8ypUP3hIFsf-22" target="iNh4lFPZa8ypUP3hIFsf-1" edge="1">
          <mxGeometry width="160" relative="1" as="geometry">
            <mxPoint x="346.0799999999999" y="323.98" as="sourcePoint" />
            <mxPoint x="350" y="195.9230769230769" as="targetPoint" />
          </mxGeometry>
        </mxCell>
        <mxCell id="iNh4lFPZa8ypUP3hIFsf-33" value="public class drumSnare extends drumSet" style="text;html=1;strokeColor=none;fillColor=none;align=center;verticalAlign=middle;whiteSpace=wrap;rounded=0;" parent="1" vertex="1">
          <mxGeometry x="-20" y="420" width="280" height="20" as="geometry" />
        </mxCell>
        <mxCell id="iNh4lFPZa8ypUP3hIFsf-34" value="String = Batter Drum Head Type&lt;br&gt;String = Resonant Drum Head Type&lt;br&gt;int = # of Lugs&amp;nbsp;&lt;br&gt;int = Druim Diameter&lt;br&gt;Boolean:= snares?" style="text;html=1;strokeColor=#6c8ebf;fillColor=#dae8fc;align=center;verticalAlign=middle;whiteSpace=wrap;rounded=0;" parent="1" vertex="1">
          <mxGeometry x="500" y="36" width="210" height="140" as="geometry" />
        </mxCell>
        <mxCell id="iNh4lFPZa8ypUP3hIFsf-35" value="Diameter - 14&quot;&lt;br&gt;" style="text;html=1;strokeColor=none;fillColor=none;align=center;verticalAlign=middle;whiteSpace=wrap;rounded=0;" parent="1" vertex="1">
          <mxGeometry x="30" y="450" width="40" height="20" as="geometry" />
        </mxCell>
        <mxCell id="iNh4lFPZa8ypUP3hIFsf-37" value="Batter Drum Head Type = Coated Ambassador&lt;br&gt;Resonant Drum Head Type = Clear Ambassador&lt;br&gt;int = # of Lugs (8)&lt;br&gt;int = Druim Diameter 14&quot;&lt;br&gt;Boolean:= snares? true" style="text;html=1;strokeColor=#6c8ebf;fillColor=#dae8fc;align=center;verticalAlign=middle;whiteSpace=wrap;rounded=0;" parent="1" vertex="1">
          <mxGeometry x="15" y="480" width="210" height="140" as="geometry" />
        </mxCell>
      </root>
    </mxGraphModel>
  </diagram>
</mxfile>
